<svg height="512" viewBox="0 0 46 60" width="512" xmlns="http://www.w3.org/2000/svg"><g id="Page-1" fill="none" fill-rule="evenodd"><g id="009---Boxing-Location" fill-rule="nonzero"><path id="Shape" d="m23 1c12.1502645 0 22 9.8497355 22 22 0 19.57-16.11 31.86-20.76 35.56-.7225435.5867714-1.7574565.5867714-2.48 0-4.65-3.7-20.76-15.99-20.76-35.56 0-12.1502645 9.8497355-22 22-22z" fill="#a4c2f7"/><path id="Shape" d="m23 1c-.5 0-1 .023-1.5.057 11.5389305.78857995 20.4969487 10.3771552 20.5 21.943 0 19.231-15.548 31.425-20.5 35.354l.26.206c.7225435.5867714 1.7574565.5867714 2.48 0 4.65-3.7 20.76-15.99 20.76-35.56 0-12.1502645-9.8497355-22-22-22z" fill="#7facfa"/><path id="Shape" d="m29.93 36v8c0 1.1045695-.8954305 2-2 2h-12c-1.1032019-.0032948-1.9967052-.8967981-2-2v-8z" fill="#e8edfc"/><path id="Shape" d="m26.93 36v8c0 1.1045695-.8954305 2-2 2h3c1.1045695 0 2-.8954305 2-2v-8z" fill="#cad9fc"/><path id="Shape" d="m33.97 15.39c-.0747682 1.0251982-.2523262 2.0402936-.53 3.03-1.77 6.55-7.54 8.63-12.91 7.77-4.28-.68-8.3-3.23-9.85-6.86-.4066685-.9430374-.6338868-1.9536498-.67-2.98-.19-5.51 2.82-8.1 5.87-9.3 1.9674619-.73915165 4.0589238-1.09225561 6.16-1.04 2.4066741-.05252325 4.7987694.38642454 7.03 1.29 3.2903151 1.25986358 5.307564 4.5903827 4.9 8.09z" fill="#e8edfc"/><path id="Shape" d="m29.07 7.3c-2.2312306-.90357546-4.6233259-1.34252325-7.03-1.29-.5048693-.01746033-1.0103193-.00677711-1.514.032 1.906409.09872713 3.7816854.5242498 5.544 1.258 3.2903151 1.25986358 5.307564 4.5903827 4.9 8.09-.0747682 1.0251982-.2523262 2.0402936-.53 3.03-1.0116803 4.3337932-4.7114969 7.5147134-9.148 7.865 5.143.553 10.461-1.624 12.148-7.865.2776738-.9897064.4552318-2.0048018.53-3.03.407564-3.4996173-1.6096849-6.83013642-4.9-8.09z" fill="#cad9fc"/><path id="Shape" d="m39.93 19.1c0 9.66-10 16.9-10 16.9h-16c-2.76-5.06-3.15-12.23-3.25-16.67 1.55 3.63 5.57 6.18 9.85 6.86 5.37.86 11.14-1.22 12.91-7.77.2776738-.9897064.4552318-2.0048018.53-3.03 2.86-1.48 5.96-1.68 5.96 3.71z" fill="#e8edfc"/><path id="Shape" d="m19 50 4 4 4-4z" fill="#e8edfc"/><path id="Shape" d="m21.5 58.354.26.206c.7222701.5875412 1.7577299.5875412 2.48 0l.26-.206c-4.952-3.929-20.5-16.123-20.5-35.354.00550452-11.5648766 8.9622021-21.15203829 20.5-21.943-.5-.034-1-.057-1.5-.057-12.1482066.00496667-21.99503333 9.8517934-22 22 0 19.231 15.548 31.425 20.5 35.354z" fill="#fff"/><path id="Shape" d="m2.911 30.7-1.949.45-.247-1-.156-1.016-.309-2.034c-.15-1.357-.164-2.732-.25-4.1h2c.086 1.292.092 2.592.238 3.877l.293 1.923.145.961z" fill="#fff"/><g fill="#428dff"><path id="Shape" d="m1.262 27.991c-.55228473.0027614-1.00223852-.4427153-1.00499994-.995-.00276143-.5522847.44271521-1.0022385.99499994-1.005h.01c.55228475 0 1 .4477153 1 1s-.44771525 1-1 1z"/><path id="Shape" d="m1 24c.55228475 0 1-.4477153 1-1 .00000017-11.5979796 9.4020204-20.99999969 21-20.99999969s20.9999998 9.40202009 21 20.99999969c0 18.61-15.069 30.563-20.021 34.491l-.378.3c-.3522573.2763844-.8477427.2763844-1.2 0-.005-.005-.013-.006-.019-.011-4.5599751-3.4347767-8.6498422-7.4526971-12.165-11.951-1.70417382-2.258918-3.20439843-4.6646987-4.483-7.189-.61023676-1.2706196-1.1533181-2.5724126-1.627-3.9-.225-.666-.484-1.322-.681-2l-.515-2.04c-.1502004-.524013-.67579954-.8464904-1.211-.743-.2624767.0512176-.49135594.2103625-.63075965.4385814s-.17650293.5045094-.10224035.7614186l.546 2.162c.208.712.479 1.4.717 2.107.49940214 1.3957842 1.07185925 2.7643406 1.715 4.1 1.33515892 2.6387597 2.90268495 5.1533606 4.684 7.514 3.6150685 4.628827 7.8200703 8.7649109 12.508 12.303 1.0864288.8780745 2.6385712.8780745 3.725 0l.359-.284c5.14-4.078 20.779-16.483 20.779-36.059 0-12.7025492-10.2974508-23-23-23s-23 10.2974508-23 23c0 .2652165.10535684.5195704.29289322.7071068s.44189029.2928932.70710678.2928932z"/><path id="Shape" d="m30.93 44v-7.5c1.947-1.523 10-8.366 10-17.4 0-2.572-.681-4.291-2.023-5.108-1.2285082-.6412406-2.6828145-.6854445-3.948-.12-.2046477-3.3536598-2.348619-6.2789983-5.485-7.484-2.35738-.96660474-4.8887545-1.43672688-7.436-1.381-2.2267075-.05428494-4.4429471.32193592-6.527 1.108-3.087 1.22-6.72 3.993-6.5 10.272.0372182 1.0922476.26778613 2.169247.681 3.181.114 4.811.6 11.623 3.239 16.645v7.787c0 1.6568542 1.3431458 3 3 3h12c1.6564637-.0005522 2.9990001-1.3435362 2.999-3zm-14.681-36.025c1.86387-.69652917 3.8450591-1.02525578 5.834-.968 2.252862-.04746333 4.4918612.36352451 6.581 1.208 3.854 1.714 5.136 5.06 3.813 9.946-1.709 6.307-7.215 7.772-11.792 7.039-4.755-.761-9.513-4.106-9.677-8.881-.141-4.106 1.622-6.913 5.241-8.344zm11.681 37.025h-12c-.5522847 0-1-.4477153-1-1v-7h2.07c.5522847 0 1-.4477153 1-1s-.4477153-1-1-1h-2.434c-1.795-3.581-2.474-8.171-2.732-12.169 2.3082945 2.3214836 5.2986984 3.8436672 8.534 4.344.791745.1263315 1.5922395.1898628 2.394.19 4.7 0 9.891-2.211 11.644-8.681.2392202-.8661705.4094196-1.7499371.509-2.643 1.3-.59 2.341-.715 2.955-.34.7.423 1.063 1.6 1.063 3.4 0 8.239-7.89 14.77-9.34 15.9h-8.593c-.5522847 0-1 .4477153-1 1s.4477153 1 1 1h7.93v3c-.007 0-.012 0-.019 0h-7.425c-.5522847 0-1 .4477153-1 1s.4477153 1 1 1h7.425.019v2c-.0005519.5518942-.4481055.9990003-1 .999z"/><path id="Shape" d="m14.006 17.216h.036c.5516365-.0195404.9831134-.4823485.964-1.034-.08-2.312.586-3.53 2.375-4.343.3252903-.147908.546963-.4581209.5815161-.8137845.0345531-.3556637-.1232628-.7027443-.414-.9105-.2907372-.20775572-.6702258-.24462345-.9955161-.0967155-2.527 1.149-3.654 3.129-3.545 6.233.0188339.5377955.4598754.9642534.998.965z"/><path id="Shape" d="m25.5 33.868c.4794043.2737673 1.0899643.1072509 1.364-.372.2737673-.4794043.1072509-1.0899643-.372-1.364l-1.977-1.132 1.985-1.132c.4650043-.2805182.6211324-.8808858.3516968-1.3523981-.2694357-.4715124-.8659405-.6418041-1.3436968-.3836019l-3 1.716-3-1.716c-.4777563-.2582022-1.0742611-.0879105-1.3436968.3836019-.2694356.4715123-.1133075 1.0718799.3516968 1.3523981l1.969 1.132-1.985 1.132c-.3940621.2254282-.5868246.6880224-.4694404 1.1265697s.5154576.7429948.9694404.7414303c.1737359.0002873.3444758-.0452434.495-.132l3-1.716z"/><path id="Shape" d="m27 49h-8c-.4043959.0000863-.7689341.2437275-.923678.6173454-.1547439.373618-.0692299.8036603.216678 1.0896546l4 4c.3904999.3903819 1.0235001.3903819 1.414 0l4-4c.2859079-.2859943.3714219-.7160366.216678-1.0896546-.1547439-.3736179-.5192821-.6172591-.923678-.6173454zm-4 3.586-1.586-1.586h3.172z"/></g></g></g></svg>