<svg xmlns="http://www.w3.org/2000/svg" fill="none" viewBox="0 0 26 25">
    <path fill="#000" d="M13.076 6.08a6.414 6.414 0 0 0-6.415 6.415 6.414 6.414 0 0 0 6.415 6.414 6.414 6.414 0 0 0 6.414-6.414 6.414 6.414 0 0 0-6.414-6.415Zm0 10.578a4.163 4.163 0 1 1 4.164-4.164 4.162 4.162 0 0 1-4.164 4.164Z" />
    <path fill="#000" d="M18.225.079c-2.3-.108-7.996-.103-10.298 0C5.904.173 4.119.662 2.68 2.1.277 4.504.584 7.744.584 12.495c0 4.862-.27 8.027 2.097 10.395 2.413 2.412 5.7 2.096 10.394 2.096 4.817 0 6.48.003 8.183-.656 2.315-.899 4.063-2.968 4.234-6.686.108-2.301.102-7.997 0-10.299C25.286 2.957 22.93.295 18.225.08Zm3.64 21.22c-1.575 1.576-3.761 1.435-8.82 1.435-5.208 0-7.296.077-8.82-1.45-1.756-1.747-1.438-4.553-1.438-8.806 0-5.755-.59-9.9 5.185-10.195C9.3 2.236 9.69 2.22 13.031 2.22l.047.031c5.55 0 9.906-.58 10.167 5.194.06 1.318.073 1.714.073 5.049-.001 5.148.097 7.249-1.452 8.805Z" />
    <path fill="#000" d="M19.744 7.326a1.499 1.499 0 1 0 0-2.998 1.499 1.499 0 0 0 0 2.998Z" />
</svg>