<svg viewBox="0 0 46 60" xmlns="http://www.w3.org/2000/svg" width="60"><g fill-rule="nonzero" fill="none"><path d="M23 1c12.15 0 22 9.85 22 22 0 19.57-16.11 31.86-20.76 35.56a1.967 1.967 0 01-2.48 0C17.11 54.86 1 42.57 1 23 1 10.85 10.85 1 23 1z" fill="#a4c2f7"/><path d="M23 1c-.5 0-1 .023-1.5.057C33.039 1.846 41.997 11.434 42 23c0 19.231-15.548 31.425-20.5 35.354l.26.206a1.967 1.967 0 002.48 0C28.89 54.86 45 42.57 45 23c0-12.15-9.85-22-22-22z" fill="#7facfa"/><path d="M29.93 36v8a2 2 0 01-2 2h-12a2.006 2.006 0 01-2-2v-8z" fill="#e8edfc"/><path d="M26.93 36v8a2 2 0 01-2 2h3a2 2 0 002-2v-8z" fill="#cad9fc"/><path d="M33.97 15.39a15.35 15.35 0 01-.53 3.03c-1.77 6.55-7.54 8.63-12.91 7.77-4.28-.68-8.3-3.23-9.85-6.86a8.259 8.259 0 01-.67-2.98c-.19-5.51 2.82-8.1 5.87-9.3a16.359 16.359 0 016.16-1.04 17.7 17.7 0 017.03 1.29 7.708 7.708 0 014.9 8.09z" fill="#e8edfc"/><path d="M29.07 7.3a17.7 17.7 0 00-7.03-1.29 13.6 13.6 0 00-1.514.032c1.906.099 3.782.524 5.544 1.258a7.708 7.708 0 014.9 8.09 15.35 15.35 0 01-.53 3.03 10.22 10.22 0 01-9.148 7.865c5.143.553 10.461-1.624 12.148-7.865.278-.99.455-2.005.53-3.03a7.708 7.708 0 00-4.9-8.09z" fill="#cad9fc"/><path d="M39.93 19.1c0 9.66-10 16.9-10 16.9h-16c-2.76-5.06-3.15-12.23-3.25-16.67 1.55 3.63 5.57 6.18 9.85 6.86 5.37.86 11.14-1.22 12.91-7.77.278-.99.455-2.005.53-3.03 2.86-1.48 5.96-1.68 5.96 3.71zM19 50l4 4 4-4z" fill="#e8edfc"/><path d="M21.5 58.354l.26.206a1.965 1.965 0 002.48 0l.26-.206C19.548 54.425 4 42.231 4 23c.006-11.565 8.962-21.152 20.5-21.943C24 1.023 23.5 1 23 1c-12.148.005-21.995 9.852-22 22 0 19.231 15.548 31.425 20.5 35.354z" fill="#fff"/><path d="M2.911 30.7l-1.949.45-.247-1-.156-1.016L.25 27.1C.1 25.743.086 24.368 0 23h2c.086 1.292.092 2.592.238 3.877l.293 1.923.145.961z" fill="#fff"/><g fill="#428dff"><path d="M1.262 27.991a1 1 0 01-.01-2h.01a1 1 0 010 2z"/><path d="M1 24a1 1 0 001-1C2 11.402 11.402 2 23 2s21 9.402 21 21c0 18.61-15.069 30.563-20.021 34.491l-.378.3a.972.972 0 01-1.2 0c-.005-.005-.013-.006-.019-.011a65.3 65.3 0 01-12.165-11.951 47.8 47.8 0 01-4.483-7.189 40.257 40.257 0 01-1.627-3.9c-.225-.666-.484-1.322-.681-2l-.515-2.04a1.052 1.052 0 00-1.211-.743.953.953 0 00-.733 1.2l.546 2.162c.208.712.479 1.4.717 2.107a42.285 42.285 0 001.715 4.1 49.806 49.806 0 004.684 7.514 67.351 67.351 0 0012.508 12.303 2.963 2.963 0 003.725 0l.359-.284C30.361 54.981 46 42.576 46 23 46 10.297 35.703 0 23 0S0 10.297 0 23a1 1 0 001 1z"/><path d="M30.93 44v-7.5c1.947-1.523 10-8.366 10-17.4 0-2.572-.681-4.291-2.023-5.108a4.534 4.534 0 00-3.948-.12 8.577 8.577 0 00-5.485-7.484 18.532 18.532 0 00-7.436-1.381 17.3 17.3 0 00-6.527 1.108c-3.087 1.22-6.72 3.993-6.5 10.272a9.246 9.246 0 00.681 3.181c.114 4.811.6 11.623 3.239 16.645V44a3 3 0 003 3h12a3 3 0 002.999-3zM16.249 7.975a15.4 15.4 0 015.834-.968 16.626 16.626 0 016.581 1.208c3.854 1.714 5.136 5.06 3.813 9.946-1.709 6.307-7.215 7.772-11.792 7.039-4.755-.761-9.513-4.106-9.677-8.881-.141-4.106 1.622-6.913 5.241-8.344zM27.93 45h-12a1 1 0 01-1-1v-7H17a1 1 0 000-2h-2.434c-1.795-3.581-2.474-8.171-2.732-12.169a15.341 15.341 0 008.534 4.344c.792.126 1.592.19 2.394.19 4.7 0 9.891-2.211 11.644-8.681.24-.866.41-1.75.509-2.643 1.3-.59 2.341-.715 2.955-.34.7.423 1.063 1.6 1.063 3.4 0 8.239-7.89 14.77-9.34 15.9H21a1 1 0 000 2h7.93v3h-7.444a1 1 0 000 2h7.444v2a1 1 0 01-1 .999z"/><path d="M14.006 17.216h.036a1 1 0 00.964-1.034c-.08-2.312.586-3.53 2.375-4.343a1 1 0 00-.828-1.821c-2.527 1.149-3.654 3.129-3.545 6.233a1 1 0 00.998.965zM25.5 33.868a1 1 0 00.992-1.736L24.515 31l1.985-1.132a1 1 0 00-.992-1.736l-3 1.716-3-1.716a1 1 0 00-.992 1.736L20.485 31 18.5 32.132a1 1 0 10.995 1.736l3-1.716zM27 49h-8a1 1 0 00-.707 1.707l4 4a1 1 0 001.414 0l4-4A1 1 0 0027 49zm-4 3.586L21.414 51h3.172z"/></g></g></svg>