<svg xmlns="http://www.w3.org/2000/svg" fill="none" viewBox="0 0 26 25">
    <path fill="#000" d="M21.857 3.63A12.39 12.39 0 0 0 13.059 0a12.454 12.454 0 0 0-8.811 3.627C1.88 5.971.574 9.085.57 12.384v.006c0 1.997.525 4.012 1.521 5.851L.605 25l6.837-1.555a12.513 12.513 0 0 0 5.612 1.333h.005c3.317 0 6.446-1.288 8.81-3.627 2.37-2.346 3.677-5.455 3.678-8.757.001-3.279-1.31-6.391-3.69-8.764Zm-8.798 19.197h-.005c-1.75 0-3.483-.44-5.013-1.27l-.323-.176-4.546 1.034.987-4.488-.19-.328c-.946-1.632-1.446-3.434-1.446-5.21C2.526 6.635 7.253 1.95 13.058 1.95a10.452 10.452 0 0 1 7.421 3.062c2.011 2.003 3.118 4.624 3.117 7.38-.002 5.753-4.73 10.434-10.537 10.434Z" />
    <path fill="#000" d="M9.66 6.927h-.547c-.19 0-.5.071-.761.356-.262.285-1 .974-1 2.374 0 1.401 1.024 2.755 1.166 2.945.143.19 1.976 3.156 4.88 4.297 2.413.948 2.904.76 3.428.712.523-.047 1.69-.688 1.928-1.353s.238-1.234.166-1.354c-.071-.118-.262-.19-.547-.332-.286-.142-1.686-.842-1.948-.938-.262-.095-.452-.142-.643.143-.19.285-.751.943-.918 1.133-.166.19-.333.214-.619.072-.285-.143-1.196-.45-2.287-1.419-.85-.755-1.439-1.717-1.606-2.002-.166-.285-.017-.439.126-.58a8.7 8.7 0 0 0 .444-.469c.143-.166.184-.285.28-.475.094-.19.047-.356-.025-.498-.071-.143-.62-1.55-.873-2.114-.214-.474-.44-.49-.643-.498Z" />
</svg>